<svg width="26" height="26" viewBox="0 0 26 26" fill="none" xmlns="http://www.w3.org/2000/svg">
<path d="M19.6004 7.59081L13.2485 5.04778C13.0894 4.98409 12.9106 4.98406 12.7515 5.04778L6.39962 7.59081C6.15769 7.68769 6 7.91544 6 8.16803V11.2594C6 15.5161 8.66807 19.3451 12.7551 20.9537C12.912 21.0154 13.0879 21.0154 13.2449 20.9537C17.3319 19.3451 20 15.5161 20 11.2594V8.16803C20 7.91544 19.8423 7.68769 19.6004 7.59081V7.59081ZM18.7037 11.2594C18.7037 14.878 16.5 18.2092 13 19.6961C9.59353 18.2489 7.2963 14.9761 7.2963 11.2594V8.58528L13 6.30172L18.7037 8.58528V11.2594ZM12.2836 13.3661L15.0695 10.6798C15.3226 10.4357 15.7329 10.4357 15.9861 10.6798C16.2392 10.9239 16.2392 11.3196 15.9861 11.5637L12.7419 14.6919C12.4887 14.9361 12.0784 14.936 11.8253 14.6919L10.0139 12.9453C9.76078 12.7012 9.76078 12.3054 10.0139 12.0614C10.2671 11.8173 10.6774 11.8173 10.9305 12.0614L12.2836 13.3661Z" fill="white"/>
</svg>
