<svg width="26" height="26" viewBox="0 0 26 26" fill="none" xmlns="http://www.w3.org/2000/svg">
<path d="M18.6773 5.00036H17.5845L17.582 5L17.5796 5.00036H8.35804L8.35556 5L8.35307 5.00018H7.32267C6.67929 5 6.09671 5.26187 5.67787 5.6825C5.25884 6.10296 5 6.68484 5 7.3229V8.3551V11.4519V12.4841C4.99982 13.1266 5.25849 13.7093 5.67822 14.1286C6.09742 14.5481 6.68018 14.807 7.32267 14.8066H7.92658V16.1522C7.92676 18.8295 10.0965 20.9995 12.7737 21H12.7742C14.2302 21 15.5513 20.4635 16.5109 19.5891C17.4704 18.7159 18.07 17.4984 18.0699 16.1522L18.0697 16.1496L18.0699 16.1469L18.042 14.8066H18.6775C19.3156 14.8068 19.8974 14.5479 20.3177 14.1287C20.7383 13.7101 21.0002 13.1273 21 12.4841V11.4519V8.35527V7.32307C20.9989 6.04376 19.9564 5.00124 18.6773 5.00036ZM16.6208 11.7109C16.8626 11.7331 17.0764 11.8418 17.2308 12.005C17.3867 12.1705 17.48 12.3874 17.4802 12.6288V12.6341L17.5534 16.1535C17.5531 17.3437 17.0263 18.4207 16.1634 19.208C15.3542 19.9453 14.2511 20.4219 13.0217 20.4786L12.7739 20.4843C11.5771 20.4839 10.496 19.9996 9.71129 19.2154C8.97939 18.483 8.50875 17.4923 8.4491 16.3904L8.44267 16.1526V14.807L13.5956 14.8088C13.5621 14.8368 13.5282 14.8644 13.4962 14.8948C13.1166 15.253 12.8492 15.7661 12.763 16.4022C12.7436 16.5434 12.8425 16.6735 12.9836 16.6929C13.1248 16.7123 13.2549 16.6134 13.2743 16.4723C13.3481 15.9377 13.562 15.5439 13.8508 15.2697C14.1403 14.9963 14.5099 14.8406 14.9099 14.8084L14.9255 14.8056L14.9431 14.8034L14.954 14.8004L14.9913 14.7881L15.0007 14.7833L15.021 14.7721L15.0348 14.7643L15.043 14.7577L15.0608 14.7428L15.0725 14.7328L15.0798 14.7243L15.094 14.7067L15.1038 14.6944L15.1095 14.6847L15.12 14.6647L15.1276 14.65L15.131 14.64L15.1378 14.6176L15.1426 14.6002L15.1435 14.5972L15.5189 12.5308C15.5634 12.2921 15.6857 12.0931 15.8725 11.9474C16.058 11.8037 16.31 11.7129 16.6208 11.7109ZM17.3371 5.51646C17.3996 6.34012 17.7559 7.08236 18.3052 7.63117C18.8683 8.19456 19.6348 8.55403 20.4839 8.60257V11.2019C19.4628 11.2613 18.5662 11.7744 17.992 12.541C17.9708 12.1978 17.8284 11.8857 17.6059 11.6505C17.3646 11.395 17.0293 11.2263 16.6553 11.1952L16.6476 11.1946L16.6286 11.1943C16.2126 11.1941 15.8405 11.3187 15.5559 11.5397C15.3066 11.7326 15.1268 11.9994 15.0416 12.3046L15.0108 12.4382L14.6738 14.2932L8.60053 14.2909C8.47431 12.6485 7.15858 11.3322 5.51627 11.2056V8.59937C7.15733 8.47403 8.47413 7.16574 8.60053 5.51646H17.3371ZM5.51627 11.7216C6.19431 11.7833 6.80533 12.0844 7.26364 12.5426C7.72178 13.0011 8.02311 13.6125 8.08444 14.2909H7.32267C6.31822 14.29 5.51698 13.4887 5.51627 12.4843V11.7216ZM20.4837 11.7177V12.4841C20.4836 12.9867 20.2811 13.4363 19.9532 13.7634C19.6251 14.0902 19.1748 14.2907 18.6773 14.2907H18.0311L18.016 13.5671C18.3925 12.5468 19.344 11.7954 20.4837 11.7177ZM18.6773 5.51646C19.1739 5.51646 19.6244 5.71913 19.9529 6.04731C20.2811 6.37585 20.4837 6.82635 20.4837 7.3229V8.08647C19.09 7.99224 17.9774 6.90155 17.853 5.51646H18.6773ZM8.08444 5.51646C8.02276 6.19843 7.7216 6.80893 7.26382 7.26601C6.80569 7.72273 6.19484 8.02211 5.51627 8.08327V7.3229C5.51627 6.82546 5.7168 6.37514 6.04356 6.04696C6.37067 5.71913 6.82027 5.51663 7.32267 5.51646H8.08444Z" fill="#363636" stroke="white" stroke-width="0.6"/>
<path d="M13.5671 9.64925H12.4286C12.2514 9.64907 12.0937 9.57902 11.9783 9.46542C11.8633 9.35146 11.7936 9.19768 11.7934 9.02577C11.7936 8.85368 11.8633 8.70007 11.9783 8.58594C12.0937 8.47233 12.2514 8.40229 12.4286 8.40211H14.088C14.2306 8.40211 14.346 8.28655 14.346 8.14415C14.346 8.00157 14.2304 7.88619 14.088 7.88619H13.2558V7.44173C13.2558 7.29915 13.1403 7.18359 12.9977 7.18359C12.8551 7.18359 12.7396 7.29915 12.7396 7.44173V7.88619H12.4285C12.1124 7.88601 11.8235 8.0133 11.6157 8.21882C11.4075 8.4238 11.2772 8.71109 11.2773 9.02595C11.2772 9.3408 11.4075 9.62791 11.6157 9.83307C11.8235 10.0386 12.1124 10.1659 12.4285 10.1657H13.5669C13.744 10.1659 13.9019 10.2359 14.0173 10.3495C14.1323 10.4635 14.202 10.6173 14.2021 10.7894C14.202 10.9613 14.1323 11.1151 14.0173 11.229C13.9019 11.3426 13.7442 11.4127 13.5669 11.4128H13.0261L12.9979 11.41L12.9696 11.4128H11.9077C11.7652 11.4128 11.6496 11.5284 11.6496 11.671C11.6496 11.8136 11.7652 11.9291 11.9077 11.9291H12.7399V12.3697C12.7399 12.5122 12.8555 12.6278 12.9981 12.6278C13.1406 12.6278 13.2562 12.5122 13.2562 12.3697V11.9291H13.5673C13.8834 11.9293 14.1723 11.802 14.3801 11.5965C14.5883 11.3915 14.7186 11.1044 14.7184 10.7894C14.7186 10.4745 14.5883 10.1874 14.3801 9.98223C14.1721 9.77636 13.8832 9.64907 13.5671 9.64925Z" fill="#363636" stroke="white" stroke-width="0.6"/>
</svg>
