<svg width="26" height="26" viewBox="0 0 26 26" fill="none" xmlns="http://www.w3.org/2000/svg">
<path d="M11.2829 9.41638C10.8687 9.15945 10.3379 9.47002 10.3379 9.9735V16.0291C10.3379 16.5352 10.8696 16.8414 11.2829 16.5871L16.1737 13.5636C16.5804 13.3119 16.5796 12.7011 16.1746 12.4485L11.2829 9.41638ZM11.5879 14.8881V11.1163L14.6337 13.0048L11.5879 14.8881Z" fill="white"/>
<path d="M19.5867 5.44833C15.7092 4.85056 10.2925 4.85056 6.41333 5.44833C4.86167 5.6871 3.63917 6.95185 3.3725 8.59379C2.87583 11.6415 2.87583 14.3587 3.3725 17.4056C3.63917 19.0484 4.86167 20.3123 6.41333 20.551C8.35667 20.8503 10.6833 21 13.0092 21C15.3308 21 17.6517 20.8512 19.5875 20.5519C21.1375 20.3131 22.3592 19.0492 22.6275 17.4064C23.1242 14.3587 23.1242 11.6406 22.6275 8.59292C22.3608 6.95185 21.1383 5.6871 19.5867 5.44833V5.44833ZM21.395 17.1902C21.2175 18.2767 20.4175 19.1124 19.4033 19.2681C15.6383 19.8486 10.3717 19.8486 6.59667 19.2672C5.58167 19.1107 4.78083 18.2758 4.60417 17.1893C4.12583 14.2532 4.12583 11.747 4.60417 8.80919C4.78167 7.72265 5.58167 6.8887 6.5975 6.73126C8.4825 6.44145 10.7417 6.29612 12.9992 6.29612C15.2583 6.29612 17.5175 6.44145 19.4025 6.73126C20.4175 6.88784 21.2183 7.72265 21.395 8.80919C21.8733 11.747 21.8733 14.2532 21.395 17.1902Z" fill="white"/>
</svg>
