<svg width="26" height="26" viewBox="0 0 26 26" fill="none" xmlns="http://www.w3.org/2000/svg">
<path d="M24.4999 10.9999H20.263L14.9121 3.21658C14.7559 2.98905 14.4448 2.93191 14.2168 3.08768C13.9893 3.24443 13.9317 3.55544 14.0879 3.78298L19.0494 10.9998H6.95054L11.9121 3.78302C12.0683 3.55549 12.0107 3.24443 11.7832 3.08772C11.5567 2.93196 11.2451 2.9891 11.0879 3.21663L5.73694 10.9999H1.50001C1.22364 10.9999 1 11.2235 1 11.4999C1 11.7763 1.22364 11.9999 1.50001 11.9999H2.13437L5.19095 21.6064C5.45659 22.4399 6.22219 23 7.09669 23H18.9033C19.7778 23 20.5435 22.4399 20.8091 21.6059L23.8656 11.9999H24.5C24.7764 11.9999 25 11.7763 25 11.4999C25 11.2235 24.7763 10.9999 24.4999 10.9999ZM19.8559 21.3027C19.7231 21.7197 19.3403 22 18.9033 22H7.09669C6.65968 22 6.27685 21.7197 6.14405 21.3032L3.18386 11.9999H22.8161L19.8559 21.3027Z" fill="white" stroke="white" stroke-width="0.8"/>
</svg>
