<svg width="26" height="26" viewBox="0 0 26 26" fill="none" xmlns="http://www.w3.org/2000/svg">
<path d="M19.125 5H6.875C5.84113 5 5 5.84113 5 6.875V19.125C5 20.1589 5.84113 21 6.875 21H19.125C20.1589 21 21 20.1589 21 19.125V6.875C21 5.84113 20.1589 5 19.125 5ZM19.75 19.125C19.75 19.4696 19.4696 19.75 19.125 19.75H15.5625V14.6562H17.4934L17.8125 12.7188H15.5625V11.375C15.5625 10.8445 15.9695 10.4375 16.5 10.4375H17.7812V8.5H16.5C14.9087 8.5 13.6257 9.78906 13.6257 11.3804V12.7188H11.75V14.6562H13.6257V19.75H6.875C6.53038 19.75 6.25 19.4696 6.25 19.125V6.875C6.25 6.53038 6.53038 6.25 6.875 6.25H19.125C19.4696 6.25 19.75 6.53038 19.75 6.875V19.125Z" fill="white"/>
</svg>
