<svg width="26" height="26" viewBox="0 0 26 26" fill="none" xmlns="http://www.w3.org/2000/svg">
<path d="M20.9563 9.70406C20.9188 8.85391 20.7813 8.26945 20.5844 7.763C20.3812 7.22542 20.0687 6.74412 19.6592 6.34402C19.2591 5.93769 18.7746 5.62195 18.2432 5.42196C17.7338 5.22502 17.1524 5.08754 16.3023 5.05006C15.4458 5.0094 15.1739 5 13.0016 5C10.8293 5 10.5574 5.0094 9.70406 5.04688C8.85391 5.08437 8.26945 5.22197 7.76312 5.41878C7.22542 5.62195 6.74412 5.93451 6.34402 6.34402C5.93769 6.74412 5.62207 7.22859 5.42196 7.75995C5.22502 8.26945 5.08754 8.85074 5.05006 9.70088C5.0094 10.5574 5 10.8293 5 13.0016C5 15.1739 5.0094 15.4458 5.04688 16.2991C5.08437 17.1493 5.22197 17.7337 5.41891 18.2402C5.62207 18.7778 5.93769 19.2591 6.34402 19.6592C6.74412 20.0655 7.22859 20.3812 7.75995 20.5812C8.26945 20.7782 8.85074 20.9156 9.70101 20.9531C10.5542 20.9907 10.8262 21 12.9985 21C15.1708 21 15.4427 20.9907 16.2961 20.9531C17.1462 20.9156 17.7307 20.7782 18.237 20.5812C19.3123 20.1655 20.1624 19.3153 20.5782 18.2402C20.775 17.7307 20.9126 17.1493 20.9501 16.2991C20.9875 15.4458 20.9969 15.1739 20.9969 13.0016C20.9969 10.8293 20.9938 10.5574 20.9563 9.70406ZM19.5155 16.2366C19.481 17.018 19.3498 17.44 19.2404 17.7213C18.9715 18.4183 18.4183 18.9715 17.7213 19.2404C17.44 19.3498 17.015 19.481 16.2366 19.5153C15.3927 19.5529 15.1396 19.5622 13.0048 19.5622C10.8699 19.5622 10.6137 19.5529 9.7728 19.5153C8.99139 19.481 8.56943 19.3498 8.28813 19.2404C7.94126 19.1122 7.62552 18.909 7.36924 18.6433C7.10357 18.3839 6.9004 18.0713 6.7722 17.7244C6.66281 17.4431 6.53155 17.018 6.49725 16.2398C6.45964 15.3959 6.45036 15.1426 6.45036 13.0078C6.45036 10.873 6.45964 10.6167 6.49725 9.77597C6.53155 8.99457 6.66281 8.57261 6.7722 8.2913C6.9004 7.94431 7.10357 7.6287 7.37242 7.3723C7.63175 7.10662 7.94431 6.90345 8.2913 6.77538C8.57261 6.66598 8.99774 6.53473 9.77597 6.5003C10.6199 6.46281 10.8731 6.45341 13.0078 6.45341C15.1458 6.45341 15.3989 6.46281 16.2398 6.5003C17.0212 6.53473 17.4431 6.66598 17.7244 6.77538C18.0713 6.90345 18.3871 7.10662 18.6433 7.3723C18.909 7.63175 19.1122 7.94431 19.2404 8.2913C19.3498 8.57261 19.481 8.99762 19.5155 9.77597C19.5529 10.6199 19.5623 10.873 19.5623 13.0078C19.5623 15.1426 19.5529 15.3927 19.5155 16.2366Z" fill="white"/>
<path d="M13.0018 8.89062C10.7327 8.89062 8.8916 10.7316 8.8916 13.0008C8.8916 15.2701 10.7327 17.111 13.0018 17.111C15.271 17.111 17.112 15.2701 17.112 13.0008C17.112 10.7316 15.271 8.89062 13.0018 8.89062ZM13.0018 15.667C11.5297 15.667 10.3356 14.473 10.3356 13.0008C10.3356 11.5286 11.5297 10.3346 13.0018 10.3346C14.474 10.3346 15.668 11.5286 15.668 13.0008C15.668 14.473 14.474 15.667 13.0018 15.667V15.667Z" fill="white"/>
<path d="M18.2356 8.72907C18.2356 9.25896 17.806 9.68861 17.2759 9.68861C16.7461 9.68861 16.3164 9.25896 16.3164 8.72907C16.3164 8.19906 16.7461 7.76953 17.2759 7.76953C17.806 7.76953 18.2356 8.19906 18.2356 8.72907V8.72907Z" fill="white"/>
</svg>
