<svg width="56" height="50" viewBox="0 0 56 50" fill="none" xmlns="http://www.w3.org/2000/svg">
<path d="M47.1994 13.8303C48.4777 13.8061 52.429 14.4069 53.0097 16.806C52.4249 13.7184 48.4334 12.935 47.0638 12.961C46.9308 12.9579 46.7981 12.9748 46.6702 13.0112C46.6143 13.0282 46.5629 13.0573 46.5196 13.0966C46.5096 13.1053 46.4972 13.1112 46.4876 13.1208L46.4826 13.1249C46.4767 13.1318 46.4753 13.1404 46.4707 13.1473C46.4477 13.1758 46.4303 13.2083 46.4192 13.2432C46.4072 13.2768 46.3999 13.312 46.3977 13.3477V13.3477C46.3881 13.4457 46.4112 13.5441 46.4634 13.6276C46.4657 13.6321 46.4707 13.6353 46.4735 13.6399C46.4967 13.6783 46.5251 13.7134 46.558 13.744V13.744C46.6001 13.7811 46.6491 13.8095 46.7022 13.8275C46.7557 13.8456 46.812 13.8535 46.8684 13.8508C46.8953 13.8504 46.9221 13.8484 46.9487 13.8449C47.0319 13.8344 47.1156 13.8288 47.1994 13.828V13.8303ZM28.0981 3.79091H28.1268C30.4835 3.85483 31.6048 4.21733 36.0096 7.35195C34.4742 5.93667 30.9419 3.00338 28.4004 2.83583C28.3191 2.8299 28.1817 2.82122 28.0255 2.82396C27.8746 2.80996 27.7223 2.82703 27.5782 2.87415C27.4342 2.92126 27.3013 2.9974 27.1878 3.09788C27.1506 3.15316 27.125 3.21547 27.1128 3.28096C27.1005 3.34646 27.1019 3.41375 27.1166 3.47874C27.1313 3.54372 27.1591 3.60502 27.1984 3.65886C27.2376 3.7127 27.2875 3.75795 27.3448 3.79183C27.4221 3.82938 27.5081 3.84516 27.5936 3.83749C27.6795 3.83749 27.7735 3.82562 27.862 3.81603C27.9506 3.80644 28.0337 3.79456 28.0981 3.79319V3.79091ZM39.3267 35.6119C38.6588 33.189 35.9027 29.0496 35.1407 29.0637C35.1226 29.064 35.1046 29.0669 35.0873 29.0724C35.0312 29.0908 34.9798 29.1212 34.9366 29.1615C34.8935 29.2018 34.8595 29.251 34.8372 29.3056C34.8149 29.3603 34.8048 29.4192 34.8076 29.4781C34.8103 29.5371 34.8258 29.5948 34.853 29.6472C35.1169 30.048 37.1486 31.2451 39.3267 35.6142V35.6119ZM22.9598 26.561C24.764 26.5272 26.928 26.6847 27.5398 26.9942C27.6158 27.0284 27.6989 27.0441 27.7822 27.0399C27.8473 27.0462 27.9129 27.039 27.975 27.0188C28.0372 26.9986 28.0945 26.9658 28.1435 26.9224C28.1924 26.879 28.2318 26.8261 28.2594 26.7668C28.2869 26.7075 28.3019 26.6432 28.3035 26.5779C28.3021 26.4614 28.257 26.3498 28.1771 26.2651C28.0247 26.1434 27.8306 26.0862 27.6365 26.1058H27.5908H27.5557H27.5507C27.3224 26.1058 27.0781 26.1104 26.8257 26.1154C24.9906 26.123 23.1603 26.3033 21.3591 26.6541C21.8074 26.6066 22.364 26.5747 22.9598 26.5632V26.561ZM6.76254 12.5232C5.81521 10.4738 4.55377 9.41871 3.81463 9.43378C3.78406 9.43418 3.75358 9.43662 3.72334 9.44108C3.66086 9.44631 3.60013 9.46467 3.54523 9.49496C3.53199 9.50089 3.51787 9.50454 3.50555 9.51184L3.49908 9.51459C3.49132 9.52007 3.48722 9.52919 3.47991 9.53513C3.44836 9.55883 3.42104 9.5877 3.3991 9.6205C3.37697 9.65166 3.35903 9.68558 3.34571 9.7214V9.7214C3.30655 9.81518 3.30025 9.91944 3.32788 10.0172C3.32788 10.0223 3.33297 10.0268 3.33434 10.0318C3.34644 10.0753 3.36485 10.1166 3.38907 10.1547V10.1547C3.42138 10.2007 3.46274 10.2397 3.51056 10.2692C3.5855 10.3116 3.66925 10.3358 3.75522 10.34C4.68291 10.4089 5.3541 10.3551 6.76254 12.5255V12.5232ZM17.9021 31.2538C17.8096 31.2504 17.7189 31.2806 17.6468 31.3387C17.5747 31.3968 17.526 31.479 17.5096 31.5701C17.502 31.7122 17.5404 31.8529 17.6191 31.9714C17.7079 32.1288 17.7875 32.2911 17.8574 32.4577C18.345 33.9761 18.1884 35.0403 17.0845 39.1962C18.082 37.3965 18.9855 34.4181 18.5523 32.2422C18.5116 32.0381 18.3883 31.414 18.0592 31.2834C18.0089 31.2636 17.9552 31.2543 17.9012 31.256L17.9021 31.2538ZM15.8555 24.7768C14.9794 22.8821 12.419 18.1547 10.1327 17.0274C9.83985 16.8647 9.5159 16.7657 9.18212 16.7371C9.08787 16.736 8.99502 16.7593 8.91239 16.8047C8.85683 16.8415 8.80939 16.8893 8.77295 16.9451C8.73651 17.001 8.71187 17.0636 8.7005 17.1293C8.68913 17.195 8.69119 17.2624 8.70674 17.3272C8.7223 17.392 8.75095 17.453 8.79089 17.5064C8.8991 17.6593 9.3351 17.7273 9.51361 17.8068C11.6657 18.7687 12.9852 20.2009 15.8546 24.7791L15.8555 24.7768ZM37.9736 6.82326C36.8459 5.06694 34.1706 1.33883 31.7509 0.535314C31.4795 0.434922 31.194 0.377918 30.9049 0.366395C30.7647 0.361292 30.6267 0.401642 30.5113 0.481437C30.4614 0.525619 30.4211 0.579513 30.3927 0.639822C30.3644 0.700132 30.3486 0.76559 30.3464 0.832203C30.3441 0.898816 30.3555 0.965179 30.3798 1.02724C30.4041 1.08931 30.4407 1.14577 30.4876 1.19318C30.6154 1.33014 31.057 1.33745 31.2446 1.39178C33.5082 2.05011 34.502 2.6838 37.9745 6.82555L37.9736 6.82326ZM55.9234 17.5338V17.51C55.9234 17.4379 55.9162 17.3676 55.9084 17.3005L55.9234 17.5338ZM48.3663 21.2486C46.5244 21.2566 44.6851 21.1099 42.8677 20.8099C42.466 20.7296 42.066 20.6428 41.6866 20.552C41.0015 24.1165 39.7858 27.5581 38.0799 30.7621C39.5011 32.9308 40.7494 35.2081 41.8131 37.5728C42.7131 39.606 43.4228 41.7184 43.9328 43.8826C44.2961 44.9343 44.2611 46.0827 43.8344 47.1103C43.4078 48.1379 42.619 48.9733 41.6177 49.4584C41.6177 49.4584 41.519 49.5068 41.5008 49.5155C41.4825 49.5241 41.3803 49.5643 41.3803 49.5643C40.8683 49.7741 40.3219 49.887 39.7687 49.8971C38.9382 49.9132 38.1191 49.7023 37.3996 49.2872C36.6801 48.8722 36.0873 48.2687 35.6853 47.5418C34.4199 45.7131 33.3267 43.7713 32.4193 41.741C31.491 39.6133 30.7025 37.4273 30.0589 35.1969C29.0814 35.349 28.0356 35.4768 26.9266 35.5676C26.4363 35.6073 25.7811 35.632 25.1264 35.6443C24.1449 35.6626 23.1634 35.6539 22.7374 35.6315C21.6289 35.5731 20.5249 35.5124 19.5064 35.4284C18.6116 40.3947 15.8586 49.9136 11.3078 49.9989C3.64335 50.1432 7.57059 35.5722 12.1136 30.175C11.9952 30.1113 11.8805 30.041 11.7699 29.9645C10.5868 29.0573 9.5038 28.0265 8.53933 26.8897C7.97196 26.1867 7.44886 25.4492 6.97297 24.6814C6.11513 23.2067 5.27605 21.7385 5.04047 20.7213C4.90597 20.0897 4.92898 19.4346 5.10757 18.814C5.28616 18.1933 5.6148 17.6262 6.06446 17.1626C5.86759 16.7687 5.60994 16.4082 5.30106 16.0943C4.84761 16.3778 4.3288 16.5396 3.79456 16.564C3.65027 16.5671 3.50596 16.5569 3.36355 16.5335C2.2788 16.3563 1.65742 15.4894 1.07259 14.6721C0.487755 13.8549 -0.166878 12.9428 0.0385664 11.8283C0.236249 10.7559 1.10911 10.1286 1.55744 9.80769C2.14449 9.32793 2.86461 9.03982 3.62057 8.98225C3.76016 8.97969 3.89974 8.98856 4.03788 9.00874C5.20663 9.18131 5.88095 10.1149 6.38223 10.8084C6.88352 11.5019 7.6062 12.5017 7.36286 13.7143C7.2146 14.3607 6.85345 14.9386 6.33743 15.3551C6.50866 15.7638 6.76379 16.1319 7.08622 16.4358C7.58587 16.2033 8.12895 16.0788 8.67999 16.0705C9.4334 16.0512 10.1759 16.2536 10.8152 16.6526C11.6959 17.2151 12.7993 18.4966 13.9033 19.7987C14.4679 20.5038 14.9882 21.2433 15.461 22.0129C16.2099 23.3012 16.8192 24.6658 17.2785 26.0834C17.2992 26.1607 17.3174 26.2382 17.3332 26.3158C18.7983 26.0551 20.6916 25.8949 22.5991 25.7415C22.9429 25.7136 23.6491 25.6853 24.4229 25.6707C25.2492 25.6552 26.1551 25.6552 26.7888 25.6899C27.6156 25.7355 28.409 25.8008 29.165 25.8835C29.71 23.228 30.7732 20.7061 32.2937 18.4619C32.7485 17.8121 33.2418 17.1899 33.7707 16.5988C31.1935 15.6473 28.719 13.592 27.2754 12.1557C26.1573 11.0431 22.091 7.3209 25.3237 3.54164C25.6869 3.10537 26.1293 2.74167 26.6276 2.46968C26.9756 1.87374 27.4396 1.35367 27.9922 0.940264C28.6997 0.359962 29.579 0.02965 30.4936 0.000693394C33.4214 -0.0545482 36.036 3.20562 37.008 4.53462C37.9713 5.8522 40.4823 9.49175 40.9978 12.3707C41.0039 12.3732 41.0097 12.3761 41.0155 12.3794C42.1409 12.1635 43.2828 12.0445 44.4286 12.0237H44.4619C45.366 12.0324 46.2685 12.1015 47.1633 12.2306C49.3314 12.6081 50.4335 12.6771 51.4447 13.3235C51.8611 13.5901 53.6156 14.8036 53.8795 16.6038L54.2315 16.6243C54.4775 16.5774 54.719 16.5093 54.9533 16.4207C55.0583 16.3743 55.1672 16.3373 55.2788 16.3102C55.288 16.3096 55.2973 16.3096 55.3066 16.3102C55.4892 16.333 55.6499 16.5234 55.7632 16.7763C55.8403 16.943 55.8892 17.1214 55.9075 17.3041C55.9159 17.3657 55.9208 17.4278 55.9221 17.4899V17.5137C55.9321 18.1492 55.6874 18.6673 55.3691 18.676C55.323 18.6906 55.2752 18.6983 55.2268 18.6989C55.033 18.6842 54.8427 18.638 54.6638 18.5619C54.484 18.5067 54.316 18.4185 54.1685 18.3017L53.7444 18.1802L53.737 18.1711C53.1134 20.1511 50.9681 20.9007 49.0278 21.187C48.8083 21.2212 48.587 21.2426 48.365 21.2509L48.3663 21.2486Z" fill="white"/>
</svg>
