<svg width="26" height="26" viewBox="0 0 26 26" fill="none" xmlns="http://www.w3.org/2000/svg">
<path d="M18.351 16.2366C17.8623 16.2366 17.3981 16.4331 17.0479 16.7885C16.6976 17.1481 16.5021 17.6165 16.5021 18.1183C16.5021 18.6201 16.6935 19.0884 17.0479 19.448C17.4022 19.8035 17.8623 20 18.351 20C19.3529 20 20.1674 19.1553 20.1674 18.1183C20.1674 17.0812 19.3529 16.2366 18.351 16.2366ZM18.351 19.1637C17.789 19.1637 17.3166 18.687 17.3166 18.1183C17.3166 17.5496 17.789 17.0729 18.351 17.0729C18.9049 17.0729 19.3529 17.5412 19.3529 18.1183C19.3529 18.6953 18.9049 19.1637 18.351 19.1637ZM10.406 16.2366C9.91733 16.2366 9.45306 16.4331 9.10283 16.7885C8.7526 17.1481 8.55712 17.6165 8.55712 18.1183C8.55712 18.6201 8.74852 19.0884 9.10283 19.448C9.45714 19.8035 9.91733 20 10.406 20C11.4079 20 12.2224 19.1553 12.2224 18.1183C12.2224 17.0812 11.4079 16.2366 10.406 16.2366ZM10.406 19.1637C9.84402 19.1637 9.37161 18.687 9.37161 18.1183C9.37161 17.5496 9.84402 17.0729 10.406 17.0729C10.9599 17.0729 11.4079 17.5412 11.4079 18.1183C11.4079 18.6953 10.9599 19.1637 10.406 19.1637ZM9.11301 16.7509H6.87111V15.6386C6.87111 15.4086 6.68784 15.2204 6.46386 15.2204C6.23987 15.2204 6.05661 15.4086 6.05661 15.6386V17.1691C6.05661 17.399 6.23987 17.5872 6.46386 17.5872H8.77214C8.99613 17.5872 9.11301 17.2 9.11301 17.2C9.11301 16.97 9.337 16.7509 9.11301 16.7509ZM9.75443 14.4719C9.75443 14.2419 9.57117 14.0538 9.34718 14.0538H4.40725C4.18326 14.0538 4 14.2419 4 14.4719C4 14.7019 4.18326 14.8901 4.40725 14.8901H9.34718C9.57117 14.8901 9.75443 14.7061 9.75443 14.4719ZM5.23396 12.9624L10.1739 12.9916C10.3979 12.9916 10.5811 12.8076 10.5852 12.5777C10.5893 12.3435 10.406 12.1553 10.182 12.1553L5.24211 12.126C5.23804 12.126 5.23804 12.126 5.23804 12.126C5.01405 12.126 4.83079 12.31 4.83079 12.54C4.82672 12.7742 5.00998 12.9624 5.23396 12.9624ZM6.06475 11.0639H11.0047C11.2287 11.0639 11.4119 10.8757 11.4119 10.6458C11.4119 10.4158 11.2287 10.2276 11.0047 10.2276H6.06475C5.84077 10.2276 5.6575 10.4158 5.6575 10.6458C5.6575 10.8757 5.84077 11.0639 6.06475 11.0639ZM21.8493 10.4994L18.9334 8.01971C18.8601 7.95699 18.7705 7.92354 18.6728 7.92354H16.2437V6.41816C16.2437 6.18817 16.0605 6 15.8365 6H6.46386C6.23987 6 6.05661 6.18817 6.05661 6.41816V9.47909C6.05661 9.70908 6.23987 9.89725 6.46386 9.89725C6.68784 9.89725 6.87111 9.70908 6.87111 9.47909V6.83632H15.4333V16.7509H11.5655C11.3415 16.7509 11.1582 16.9391 11.1582 17.1691C11.1582 17.399 11.3415 17.5872 11.5655 17.5872H17.1789C17.4029 17.5872 17.5862 17.399 17.5862 17.1691C17.5862 16.9391 17.4029 16.7509 17.1789 16.7509H16.2478V8.75986H18.5302L21.1855 11.0179L21.157 16.7425H19.4506C19.2266 16.7425 19.0434 16.9307 19.0434 17.1607C19.0434 17.3907 19.2266 17.5789 19.4506 17.5789H21.5602C21.7842 17.5789 21.9674 17.3949 21.9674 17.1649L22 10.8256C21.9959 10.7001 21.943 10.5789 21.8493 10.4994Z" fill="white" stroke="white" stroke-width="0.2"/>
</svg>
